<?xml version="1.0" encoding="UTF-8"?>
<svg id="Capa_1" xmlns="http://www.w3.org/2000/svg" version="1.1" viewBox="0 0 780 400">
  <!-- Generator: Adobe Illustrator 29.6.0, SVG Export Plug-In . SVG Version: 2.1.1 Build 207)  -->
  <defs>
    <style>
      .st0, .st1, .st2, .st3 {
        stroke: #125389;
      }

      .st0, .st4, .st5, .st6 {
        stroke-dasharray: 4;
      }

      .st7, .st4 {
        stroke: #ffd344;
      }

      .st8 {
        fill: #014b94;
      }

      .st9 {
        fill: none;
        stroke: #000;
      }

      .st10 {
        font-family: ArialMT, Arial;
        font-size: 11px;
      }

      .st10, .st11 {
        isolation: isolate;
      }

      .st12 {
        stroke: #189af6;
      }

      .st12, .st2, .st13 {
        fill: #fff;
      }

      .st5, .st13, .st14 {
        stroke: #017d49;
      }

      .st15 {
        fill: #017d49;
      }

      .st16 {
        fill: #ffd344;
      }

      .st3 {
        stroke-width: 2px;
      }

      .st17 {
        stroke: #fff;
      }

      .st6 {
        stroke: #014b94;
      }
    </style>
  </defs>
  <path class="st9" d="M27,370h6V10h-6"/>
  <path class="st9" d="M33,370h-6"/>
  <text class="st10" transform="translate(7.71 373.97)"><tspan x="0" y="0">4,0</tspan></text>
  <path class="st9" d="M33,346h-6"/>
  <text class="st10" transform="translate(7.71 349.47)"><tspan x="0" y="0">4,2</tspan></text>
  <path class="st9" d="M33,322h-6"/>
  <text class="st10" transform="translate(7.71 324.29)"><tspan x="0" y="0">4,4</tspan></text>
  <path class="st9" d="M33,298h-6"/>
  <text class="st10" transform="translate(7.71 301.11)"><tspan x="0" y="0">4,6</tspan></text>
  <path class="st9" d="M33,274h-6"/>
  <text class="st10" transform="translate(7.71 277.47)"><tspan x="0" y="0">4,8</tspan></text>
  <path class="st9" d="M33,250h-6"/>
  <text class="st10" transform="translate(7.71 252.07)"><tspan x="0" y="0">5,0</tspan></text>
  <path class="st9" d="M33,226h-6"/>
  <text class="st10" transform="translate(7.71 228.25)"><tspan x="0" y="0">5,2</tspan></text>
  <path class="st9" d="M33,202h-6"/>
  <text class="st10" transform="translate(7.71 204.58)"><tspan x="0" y="0">5,4</tspan></text>
  <path class="st9" d="M33,178h-6"/>
  <text class="st10" transform="translate(7.71 180.99)"><tspan x="0" y="0">5,6</tspan></text>
  <path class="st9" d="M33,154h-6"/>
  <text class="st10" transform="translate(7.71 156.04)"><tspan x="0" y="0">5,8</tspan></text>
  <path class="st9" d="M33,130h-6"/>
  <text class="st10" transform="translate(7.71 133.93)"><tspan x="0" y="0">6,0</tspan></text>
  <path class="st9" d="M33,106h-6"/>
  <text class="st10" transform="translate(7.71 108.15)"><tspan x="0" y="0">6,2</tspan></text>
  <path class="st9" d="M33,82h-6"/>
  <text class="st10" transform="translate(7.71 85.04)"><tspan x="0" y="0">6,4</tspan></text>
  <path class="st9" d="M33,58h-6"/>
  <text class="st10" transform="translate(7.71 61.1)"><tspan x="0" y="0">6,6</tspan></text>
  <path class="st9" d="M33,34h-6"/>
  <text class="st10" transform="translate(7.71 37.56)"><tspan x="0" y="0">6,8</tspan></text>
  <path class="st9" d="M33,10h-6"/>
  <text class="st10" transform="translate(7.71 14.78)"><tspan x="0" y="0">7,0</tspan></text>
  <path class="st9" d="M33,376v-6h740v6"/>
  <path class="st9" d="M96,370v6"/>
  <g id="Diseñador" class="st11">
    <text class="st10" transform="translate(68.99 391)"><tspan x="0" y="0">Diseñador</tspan></text>
  </g>
  <path class="st9" d="M219,370v6"/>
  <g id="Diseñadora" class="st11">
    <text class="st10" transform="translate(189.61 391)"><tspan x="0" y="0">Diseñadora</tspan></text>
  </g>
  <path class="st9" d="M342,370v6"/>
  <g id="Diseñador_V_y_M" class="st11">
    <text class="st10" transform="translate(296.44 391)"><tspan x="0" y="0">Diseñador V y M</tspan></text>
  </g>
  <path class="st9" d="M465,370v6"/>
  <g id="Diseñadora_V_y_M" class="st11">
    <text class="st10" transform="translate(423.11 391)"><tspan x="0" y="0">Diseñadora V y M</tspan></text>
  </g>
  <path class="st9" d="M588,370v6"/>
  <g id="Diseñador_I_y_S" class="st11">
    <text class="st10" transform="translate(557.63 391)"><tspan x="0" y="0">Diseñador I y S</tspan></text>
  </g>
  <path class="st9" d="M711,370v6"/>
  <g id="Diseñadora_I_y_S" class="st11">
    <text class="st10" transform="translate(674.25 391)"><tspan x="0" y="0">Diseñadora I y S</tspan></text>
  </g>
  <path class="st4" d="M96,10v276"/>
  <path class="st7" d="M86,10h20"/>
  <path class="st7" d="M86,286h20"/>
  <path class="st16" d="M86,106h20v84h-20v-84Z"/>
  <path class="st17" d="M86,130h20"/>
  <path class="st4" d="M219,10v300"/>
  <path class="st7" d="M209,10h20"/>
  <path class="st7" d="M209,310h20"/>
  <path class="st16" d="M209,52h20v120h-20V52Z"/>
  <path class="st17" d="M209,130h20"/>
  <path class="st5" d="M342,70v210"/>
  <path class="st14" d="M332,70h20"/>
  <path class="st14" d="M332,280h20"/>
  <path class="st15" d="M332,130h20v60h-20v-60Z"/>
  <path class="st17" d="M332,154h20"/>
  <path class="st13" d="M342,311c-.6,0-1-.4-1-1s.4-1,1-1,1,.4,1,1-.4,1-1,1Z"/>
  <path class="st13" d="M342,311c-.6,0-1-.4-1-1s.4-1,1-1,1,.4,1,1-.4,1-1,1Z"/>
  <path class="st13" d="M342,371c-.6,0-1-.4-1-1s.4-1,1-1,1,.4,1,1-.4,1-1,1Z"/>
  <path class="st5" d="M465,10v345"/>
  <path class="st14" d="M455,10h20"/>
  <path class="st14" d="M455,355h20"/>
  <path class="st15" d="M455,70h20v114h-20v-114Z"/>
  <path class="st17" d="M455,130h20"/>
  <path class="st12" d="M465,371c-.6,0-1-.4-1-1s.4-1,1-1,1,.4,1,1-.4,1-1,1Z"/>
  <path class="st13" d="M465,371c-.6,0-1-.4-1-1s.4-1,1-1,1,.4,1,1-.4,1-1,1Z"/>
  <path class="st0" d="M588,37v216"/>
  <path class="st1" d="M578,37h20"/>
  <path class="st1" d="M578,253h20"/>
  <path class="st8" d="M578,118h20v54h-20v-54Z"/>
  <path class="st17" d="M578,142h20"/>
  <path class="st2" d="M588,311c-.6,0-1-.4-1-1s.4-1,1-1,1,.4,1,1-.4,1-1,1Z"/>
  <path class="st2" d="M588,35c-.6,0-1-.4-1-1s.4-1,1-1,1,.4,1,1-.4,1-1,1Z"/>
  <path class="st6" d="M711,10v360"/>
  <path class="st1" d="M701,10h20"/>
  <path id="Layer_copy" class="st3" d="M701,370h20"/>
  <path class="st1" d="M701,370h20"/>
  <path class="st8" d="M701,52h20v138h-20V52Z"/>
  <path class="st17" d="M701,130h20"/>
  <g id="_x37__x2C_0" class="st11">
    <text class="st10" transform="translate(111.44 16.89)"><tspan x="0" y="0">7,0</tspan></text>
  </g>
  <g id="_x34__x2C_7" class="st11">
    <text class="st10" transform="translate(113.7 288.77)"><tspan x="0" y="0">4,7</tspan></text>
  </g>
  <g id="_x36__x2C_0" class="st11">
    <text class="st10" transform="translate(111.03 134.89)"><tspan x="0" y="0">6,0</tspan></text>
  </g>
  <g id="_x35__x2C_5" class="st11">
    <text class="st10" transform="translate(63.36 196.78)"><tspan x="0" y="0">5,5</tspan></text>
  </g>
  <g id="_x36__x2C_2" class="st11">
    <text class="st10" transform="translate(62.94 106)"><tspan x="0" y="0">6,2</tspan></text>
  </g>
  <g id="_x37__x2C_01" data-name="_x37__x2C_0" class="st11">
    <text class="st10" transform="translate(239.34 15.33)"><tspan x="0" y="0">7,0</tspan></text>
  </g>
  <g id="_x34__x2C_5" class="st11">
    <text class="st10" transform="translate(242.26 311)"><tspan x="0" y="0">4,5</tspan></text>
  </g>
  <g id="_x36__x2C_01" data-name="_x36__x2C_0" class="st11">
    <text class="st10" transform="translate(238.93 134.89)"><tspan x="0" y="0">6,0</tspan></text>
  </g>
  <g id="_x35__x2C_65" class="st11">
    <text class="st10" transform="translate(179.36 177.7)"><tspan x="0" y="0">5,65</tspan></text>
  </g>
  <g id="_x36__x2C_65" class="st11">
    <text class="st10" transform="translate(178.94 58)"><tspan x="0" y="0">6,65</tspan></text>
  </g>
  <g id="_x36__x2C_5" class="st11">
    <text class="st10" transform="translate(362.34 76.11)"><tspan x="0" y="0">6,5</tspan></text>
  </g>
  <g id="_x34__x2C_75" class="st11">
    <text class="st10" transform="translate(358.73 286)"><tspan x="0" y="0">4,75</tspan></text>
  </g>
  <g id="_x35__x2C_8" class="st11">
    <text class="st10" transform="translate(361.88 157.56)"><tspan x="0" y="0">5,8</tspan></text>
  </g>
  <g id="_x35__x2C_51" data-name="_x35__x2C_5" class="st11">
    <text class="st10" transform="translate(297.29 195.51)"><tspan x="0" y="0">5,5</tspan></text>
  </g>
  <g id="_x36__x2C_02" data-name="_x36__x2C_0" class="st11">
    <text class="st10" transform="translate(297.75 134.89)"><tspan x="0" y="0">6,0</tspan></text>
  </g>
  <g id="_x37__x2C_02" data-name="_x37__x2C_0" class="st11">
    <text class="st10" transform="translate(488.43 15.88)"><tspan x="0" y="0">7,0</tspan></text>
  </g>
  <g id="_x34__x2C_125" class="st11">
    <text class="st10" transform="translate(493.91 355)"><tspan x="0" y="0">4,125</tspan></text>
  </g>
  <g id="_x36__x2C_03" data-name="_x36__x2C_0" class="st11">
    <text class="st10" transform="translate(488.01 133.33)"><tspan x="0" y="0">6,0</tspan></text>
  </g>
  <g id="_x35__x2C_55" class="st11">
    <text class="st10" transform="translate(424.38 190)"><tspan x="0" y="0">5,55</tspan></text>
  </g>
  <g id="_x36__x2C_51" data-name="_x36__x2C_5" class="st11">
    <text class="st10" transform="translate(423.96 74.55)"><tspan x="0" y="0">6,5</tspan></text>
  </g>
  <g id="_x36__x2C_77" class="st11">
    <text class="st10" transform="translate(603.23 44.09)"><tspan x="0" y="0">6,77</tspan></text>
  </g>
  <g id="_x34_.98" class="st11">
    <text class="st10" transform="translate(603.65 253)"><tspan x="0" y="0">4,98</tspan></text>
  </g>
  <g id="_x35__x2C_9" class="st11">
    <text class="st10" transform="translate(603.65 145)"><tspan x="0" y="0">5,9</tspan></text>
  </g>
  <g id="_x35__x2C_651" data-name="_x35__x2C_65" class="st11">
    <text class="st10" transform="translate(548.69 178)"><tspan x="0" y="0">5,65</tspan></text>
  </g>
  <g id="_x36__x2C_1" class="st11">
    <text class="st10" transform="translate(548.28 119.1)"><tspan x="0" y="0">6,1</tspan></text>
  </g>
  <g id="_x37__x2C_03" data-name="_x37__x2C_0" class="st11">
    <text class="st10" transform="translate(729.18 16.77)"><tspan x="0" y="0">7,0</tspan></text>
  </g>
  <g id="_x34__x2C_0" class="st11">
    <text class="st10" transform="translate(721 365.33)"><tspan x="0" y="0">4,0</tspan></text>
  </g>
  <g id="_x36__x2C_04" data-name="_x36__x2C_0" class="st11">
    <text class="st10" transform="translate(734.36 130)"><tspan x="0" y="0">6,0</tspan></text>
  </g>
  <g id="_x35__x2C_52" data-name="_x35__x2C_5" class="st11">
    <text class="st10" transform="translate(673.42 197.17)"><tspan x="0" y="0">5,5</tspan></text>
  </g>
  <g id="_x36__x2C_651" data-name="_x36__x2C_65" class="st11">
    <text class="st10" transform="translate(673 52)"><tspan x="0" y="0">6,65</tspan></text>
  </g>
</svg>