<?xml version="1.0" encoding="UTF-8"?>
<svg id="Capa_1" xmlns="http://www.w3.org/2000/svg" version="1.1" viewBox="0 0 800 410">
  <!-- Generator: Adobe Illustrator 29.6.0, SVG Export Plug-In . SVG Version: 2.1.1 Build 207)  -->
  <defs>
    <style>
      .st0 {
        fill: #df2d2b;
      }

      .st1, .st2 {
        stroke: #ffd344;
      }

      .st3, .st4, .st5 {
        stroke: #df2d2b;
      }

      .st6 {
        fill: none;
        stroke: #000;
      }

      .st7 {
        font-family: ArialMT, Arial;
        font-size: 11px;
        isolation: isolate;
      }

      .st4, .st2, .st8 {
        stroke-dasharray: 4;
      }

      .st8, .st9, .st10 {
        stroke: #017d49;
      }

      .st5, .st10 {
        stroke-width: 2px;
      }

      .st11 {
        fill: #017d49;
      }

      .st12 {
        fill: #ffd344;
      }

      .st13 {
        stroke: #fff;
      }
    </style>
  </defs>
  <path class="st6" d="M28,375h6V10h-6"/>
  <path class="st6" d="M794,375H28"/>
  <text class="st7" transform="translate(8.68 375)"><tspan x="0" y="0">4,0</tspan></text>
  <path class="st6" d="M34,350.7h-6"/>
  <text class="st7" transform="translate(8.68 354.17)"><tspan x="0" y="0">4,2</tspan></text>
  <path class="st6" d="M34,326.3h-6"/>
  <text class="st7" transform="translate(8.68 329)"><tspan x="0" y="0">4,4</tspan></text>
  <path class="st6" d="M34,302h-6"/>
  <text class="st7" transform="translate(8.68 302)"><tspan x="0" y="0">4,6</tspan></text>
  <path class="st6" d="M34,277.7h-6"/>
  <text class="st7" transform="translate(8.68 280.12)"><tspan x="0" y="0">4,8</tspan></text>
  <path class="st6" d="M34,253.3h-6"/>
  <text class="st7" transform="translate(8.68 254.86)"><tspan x="0" y="0">5,0</tspan></text>
  <path class="st6" d="M34,229h-6"/>
  <text class="st7" transform="translate(8.68 232.11)"><tspan x="0" y="0">5,2</tspan></text>
  <path class="st6" d="M34,204.7h-6"/>
  <text class="st7" transform="translate(8.68 207.47)"><tspan x="0" y="0">5,4</tspan></text>
  <path class="st6" d="M34,180.3h-6"/>
  <text class="st7" transform="translate(8.68 183.55)"><tspan x="0" y="0">5,6</tspan></text>
  <path class="st6" d="M34,156h-6"/>
  <text class="st7" transform="translate(8.68 159.81)"><tspan x="0" y="0">5,8</tspan></text>
  <path class="st6" d="M34,131.7h-6"/>
  <text class="st7" transform="translate(8.68 134.66)"><tspan x="0" y="0">6,0</tspan></text>
  <path class="st6" d="M34,107.3h-6"/>
  <text class="st7" transform="translate(8.68 109.97)"><tspan x="0" y="0">6,2</tspan></text>
  <path class="st6" d="M34,83h-6"/>
  <text class="st7" transform="translate(8.68 86.1)"><tspan x="0" y="0">6,4</tspan></text>
  <path class="st6" d="M34,58.7h-6"/>
  <text class="st7" transform="translate(8.68 62.89)"><tspan x="0" y="0">6,6</tspan></text>
  <path class="st6" d="M34,34.3h-6"/>
  <text class="st7" transform="translate(8.68 37.15)"><tspan x="0" y="0">6,8</tspan></text>
  <path class="st6" d="M34,10h-6"/>
  <text class="st7" transform="translate(8.68 13.65)"><tspan x="0" y="0">7,0</tspan></text>
  <path class="st6" d="M161,375v6"/>
  <text class="st7" transform="translate(129.71 397.6)"><tspan x="0" y="0">Diseñador(a)</tspan></text>
  <path class="st6" d="M414,375v6"/>
  <text class="st7" transform="translate(369.39 397.6)"><tspan x="0" y="0">Diseñador(a) V y M</tspan></text>
  <path class="st6" d="M667,374v6"/>
  <text class="st7" transform="translate(625.55 397.6)"><tspan x="0" y="0">Diseñador(a) I y S</tspan></text>
  <text class="st7" transform="translate(191.78 13.65)"><tspan x="0" y="0">7,0</tspan></text>
  <text class="st7" transform="translate(701.91 368.44)"><tspan x="0" y="0">4,0</tspan></text>
  <text class="st7" transform="translate(450.86 133.09)"><tspan x="0" y="0">6,0</tspan></text>
  <text class="st7" transform="translate(619.17 195.5)"><tspan x="0" y="0">5,5</tspan></text>
  <text class="st7" transform="translate(615.76 70.8)"><tspan x="0" y="0">6,5</tspan></text>
  <path class="st4" d="M667,10v365"/>
  <path class="st3" d="M644.5,10h45"/>
  <path class="st0" d="M644.5,70.8h45v121.7h-45v-121.7Z"/>
  <path class="st13" d="M644.5,131.7h45"/>
  <path id="abajo" class="st5" d="M644.5,375h45"/>
  <text class="st7" transform="translate(701.39 13.98)"><tspan x="0" y="0">7,0</tspan></text>
  <text class="st7" transform="translate(451.28 368.48)"><tspan x="0" y="0">4,0</tspan></text>
  <text class="st7" transform="translate(192.29 133.09)"><tspan x="0" y="0">6,0</tspan></text>
  <text class="st7" transform="translate(361.66 195.5)"><tspan x="0" y="0">5,5</tspan></text>
  <text class="st7" transform="translate(361.24 70.8)"><tspan x="0" y="0">6,5</tspan></text>
  <path id="Layer_copy" class="st8" d="M414,10v365"/>
  <path id="Layer_copy_2" class="st9" d="M391.5,10h45"/>
  <path id="Layer_copy_3" class="st13" d="M391.5,131.7h45"/>
  <path id="Layer_copy_6" class="st11" d="M391.5,70.8h45v121.7h-45v-121.7Z"/>
  <path id="Layer_copy_7" class="st13" d="M391.5,131.7h45"/>
  <path id="abajo1" data-name="abajo" class="st10" d="M390.5,375h45"/>
  <text class="st7" transform="translate(450.55 14.57)"><tspan x="0" y="0">7,0</tspan></text>
  <text class="st7" transform="translate(192.71 314.2)"><tspan x="0" y="0">4,5</tspan></text>
  <text class="st7" transform="translate(701.91 133.09)"><tspan x="0" y="0">6,0</tspan></text>
  <text class="st7" transform="translate(115.47 195.5)"><tspan x="0" y="0">5,5</tspan></text>
  <text class="st7" transform="translate(115.05 70.8)"><tspan x="0" y="0">6,5</tspan></text>
  <path class="st2" d="M161,10v304.2"/>
  <path class="st1" d="M138.5,10h45"/>
  <path class="st1" d="M137.5,314.2h45"/>
  <path class="st12" d="M138.5,70.8h45v121.7h-45v-121.7Z"/>
  <path class="st13" d="M138.5,131.7h45"/>
</svg>