<?xml version="1.0" encoding="UTF-8"?>
<svg id="Capa_1" xmlns="http://www.w3.org/2000/svg" version="1.1" viewBox="0 0 1135.5 610">
  <!-- Generator: Adobe Illustrator 29.6.0, SVG Export Plug-In . SVG Version: 2.1.1 Build 207)  -->
  <defs>
    <style>
      .st0 {
        fill: #df2d2b;
      }

      .st1 {
        fill: none;
        stroke: #000;
      }

      .st2 {
        font-family: ArialMT, Arial;
        font-size: 14px;
        isolation: isolate;
      }

      .st3 {
        fill: #017d49;
      }

      .st4 {
        fill: #ffd344;
      }

      .st5 {
        fill: #024b90;
      }
    </style>
  </defs>
  <path class="st5" d="M106.27,368.43h49.5v208h-49.5v-208Z"/>
  <path class="st5" d="M265.17,304.43h49.5v272h-49.5v-272Z"/>
  <path class="st5" d="M423.97,104.43h49.5v472h-49.5V104.43Z"/>
  <path class="st5" d="M583.87,200.43h49.5v376h-49.5V200.43Z"/>
  <path class="st5" d="M743.77,232.43h49.5v344h-49.5V232.43Z"/>
  <path class="st5" d="M903.57,408.43h49.5v168h-49.5v-168Z"/>
  <path class="st5" d="M1063.47,168.43h49.5v408h-49.5V168.43Z"/>
  <path class="st3" d="M55.87,552.43h49.5v24h-49.5v-24Z"/>
  <path class="st3" d="M1012.97,24.43h49.5v552h-49.5V24.43h0Z"/>
  <path class="st3" d="M853.17,264.43h49.5v312h-49.5v-312Z"/>
  <path class="st3" d="M533.47,416.43h49.5v160h-49.5v-160Z"/>
  <path class="st3" d="M214.67,496.43h49.5v80h-49.5v-80Z"/>
  <path class="st3" d="M373.57,488.43h49.5v88h-49.5v-88Z"/>
  <path class="st3" d="M693.27,136.43h49.5v440h-49.5V136.43Z"/>
  <path class="st0" d="M214.67,536.43h49.5v40h-49.5v-40Z"/>
  <path class="st0" d="M373.57,544.43h49.5v32h-49.5v-32Z"/>
  <path class="st0" d="M533.47,520.43h49.5v56h-49.5v-56Z"/>
  <path class="st0" d="M693.27,392.43h49.5v184h-49.5v-184Z"/>
  <path class="st0" d="M853.17,464.43h49.5v112h-49.5v-112Z"/>
  <path class="st0" d="M1012.97,344.43h49.5v232h-49.5v-232Z"/>
  <path class="st4" d="M55.87,552.43h49.5v8h-49.5v-8Z"/>
  <path class="st4" d="M533.47,416.43h49.5v32h-49.5v-32Z"/>
  <path class="st4" d="M693.27,136.43h49.5v56c0-.3-49.5,0-49.5,0v-56Z"/>
  <path class="st4" d="M853.17,264.43h49.5v32h-49.5v-32Z"/>
  <path class="st4" d="M1012.97,24.43h49.5v64h-49.5V24.43Z"/>
  <path class="st1" d="M105.87,576.43v6"/>
  <text class="st2" transform="translate(80.62 595.2)"><tspan x="0" y="0">2021-2</tspan></text>
  <path class="st1" d="M264.67,576.43v6"/>
  <text class="st2" transform="translate(243.86 595.2)"><tspan x="0" y="0">2022-1</tspan></text>
  <path class="st1" d="M423.57,576.43v6"/>
  <text class="st2" transform="translate(404.12 595.2)"><tspan x="0" y="0">2022-2</tspan></text>
  <path class="st1" d="M583.37,576.43v6"/>
  <text class="st2" transform="translate(562.49 595.2)"><tspan x="0" y="0">2023-1</tspan></text>
  <path class="st1" d="M743.27,576.43v6"/>
  <text class="st2" transform="translate(718.02 595.2)"><tspan x="0" y="0">2023-2</tspan></text>
  <path class="st1" d="M903.17,576.43v6"/>
  <text class="st2" transform="translate(871.98 595.2)"><tspan x="0" y="0">2024-1</tspan></text>
  <path class="st1" d="M1062.97,576.43v6"/>
  <text class="st2" transform="translate(1037.72 595.2)"><tspan x="0" y="0">2024-2</tspan></text>
  <path class="st1" d="M41.37,576.93V16.93"/>
  <path class="st1" d="M1130.87,576.93H34.87"/>
  <text class="st2" transform="translate(23.23 578.27)"><tspan x="0" y="0">0</tspan></text>
  <path class="st1" d="M40.87,536.93h-6"/>
  <text class="st2" transform="translate(23.23 539.36)"><tspan x="0" y="0">5</tspan></text>
  <path class="st1" d="M40.87,496.93h-6"/>
  <text class="st2" transform="translate(15.45 500.97)"><tspan x="0" y="0">10</tspan></text>
  <path class="st1" d="M40.87,456.93h-6"/>
  <text class="st2" transform="translate(15.45 462.77)"><tspan x="0" y="0">15</tspan></text>
  <path class="st1" d="M40.87,416.93h-6"/>
  <text class="st2" transform="translate(15.45 420.57)"><tspan x="0" y="0">20</tspan></text>
  <path class="st1" d="M40.87,376.93h-6"/>
  <text class="st2" transform="translate(15.45 381.21)"><tspan x="0" y="0">25</tspan></text>
  <path class="st1" d="M40.87,336.93h-6"/>
  <text class="st2" transform="translate(15.45 340.52)"><tspan x="0" y="0">30</tspan></text>
  <path class="st1" d="M40.87,296.93h-6"/>
  <text class="st2" transform="translate(15.45 298.87)"><tspan x="0" y="0">35</tspan></text>
  <path class="st1" d="M40.87,256.93h-6"/>
  <text class="st2" transform="translate(15.45 261.11)"><tspan x="0" y="0">40</tspan></text>
  <path class="st1" d="M40.87,216.93h-6"/>
  <text class="st2" transform="translate(15.45 221.47)"><tspan x="0" y="0">45</tspan></text>
  <path class="st1" d="M40.87,176.93h-6"/>
  <text class="st2" transform="translate(15.45 180.75)"><tspan x="0" y="0">50</tspan></text>
  <path class="st1" d="M40.87,136.93h-6"/>
  <text class="st2" transform="translate(15.45 140.44)"><tspan x="0" y="0">55</tspan></text>
  <path class="st1" d="M40.87,96.93h-6"/>
  <text class="st2" transform="translate(15.45 101.34)"><tspan x="0" y="0">60</tspan></text>
  <path class="st1" d="M40.87,56.93h-6"/>
  <text class="st2" transform="translate(15.45 61.43)"><tspan x="0" y="0">65</tspan></text>
  <path class="st1" d="M40.87,16.93h-6"/>
  <text class="st2" transform="translate(15.45 21.88)"><tspan x="0" y="0">70</tspan></text>
</svg>